<?xml version="1.0" encoding="UTF-8"?>
<svg width="281px" height="30px" viewBox="0 0 281 30" version="1.1" xmlns="http://www.w3.org/2000/svg" xmlns:xlink="http://www.w3.org/1999/xlink">
    <!-- Generator: Sketch 43.2 (39069) - http://www.bohemiancoding.com/sketch -->
    <title>Artboard</title>
    <desc>Created with Sketch.</desc>
    <defs></defs>
    <g id="Page-1" stroke="none" stroke-width="1" fill="none" fill-rule="evenodd">
        <g id="Artboard" fill="#000000">
            <path d="M27,6 L36,6 L36,12 L30,12 L30,24 L24,24 L24,6 L27,6 Z M6,6 L18,6 L18,24 L0,24 L0,8.25 L0,0 L6,0 L6,6 Z M120,6 L132,6 L132,24 L114,24 L114,8.25 L114,0 L120,0 L120,6 Z M120,12 L120,18 L126,18 L126,12 L120,12 Z M6,12 L6,18 L12,18 L12,12 L6,12 Z M42,18 L42,6 L60,6 L60,24 L36,24 L36,18 L42,18 Z M48,18 L54,18 L54,12 L48,12 L48,18 Z M102,6 L102,0 L108,0 L108,24 L90,24 L90,6 L102,6 Z M102,12 L96,12 L96,18 L102,18 L102,12 Z M138,6 L156,6 L156,24 L138,24 L138,6 Z M144,12 L144,18 L150,18 L150,12 L144,12 Z M78,12 L72,12 L72,24 L66,24 L66,6 L84,6 L84,24 L78,24 L78,12 Z M174.243,15 L178.485,19.2426 L174.243,23.4853 L170,19.2426 L165.757,23.4853 L161.515,19.2426 L165.757,15 L161.515,10.7574 L165.757,6.51472 L170,10.7574 L174.243,6.51472 L178.485,10.7574 L174.243,15 Z M227.25,27 L227.25,24 L212.25,24 L212.25,6 L228.75,6 L230.25,6 L230.25,30 L212.25,30 L212.25,27 L227.25,27 Z M275.25,24 L257.25,24 L257.25,12 L272.25,12 L272.25,9 L257.25,9 L257.25,6 L275.25,6 L275.25,24 Z M272.25,21 L272.25,15 L260.25,15 L260.25,21 L272.25,21 Z M227.25,21 L227.25,9 L215.25,9 L215.25,21 L227.25,21 Z M203.25,0 L203.25,24 L185.25,24 L185.25,6 L200.25,6 L200.25,0 L203.25,0 Z M200.25,21 L200.25,9 L188.25,9 L188.25,21 L200.25,21 Z M254.25,24 L239.25,24 L239.25,0 L242.25,0 L242.25,6 L254.25,6 L254.25,9 L242.25,9 L242.25,21 L254.25,21 L254.25,24 Z M278.25,0 L281.25,0 L281.25,24 L278.25,24 L278.25,0 Z M206.25,6 L209.25,6 L209.25,24 L206.25,24 L206.25,6 Z M233.25,6 L236.25,6 L236.25,24 L233.25,24 L233.25,6 Z M206.25,0 L209.25,0 L209.25,3 L206.25,3 L206.25,0 Z M233.25,0 L236.25,0 L236.25,3 L233.25,3 L233.25,0 Z" id="Combined-Shape"></path>
        </g>
    </g>
</svg>