<svg width="281" height="30" viewBox="0 0 281 30" fill="none" xmlns="http://www.w3.org/2000/svg">
<g clip-path="url(#clip0)">
<path fill-rule="evenodd" clip-rule="evenodd" d="M27 6H36V12H30V24H24V6H27ZM6 6H18V24H0V8.25V0H6V6ZM120 6H132V24H114V8.25V0H120V6ZM120 12V18H126V12H120ZM6 12V18H12V12H6ZM42 18V6H60V24H36V18H42ZM48 18H54V12H48V18ZM102 6V0H108V24H90V6H102ZM102 12H96V18H102V12ZM138 6H156V24H138V6ZM144 12V18H150V12H144ZM78 12H72V24H66V6H84V24H78V12ZM174.243 15L178.485 19.2426L174.243 23.4853L170 19.2426L165.757 23.4853L161.515 19.2426L165.757 15L161.515 10.7574L165.757 6.51472L170 10.7574L174.243 6.51472L178.485 10.7574L174.243 15Z" fill="white"/>
<path fill-rule="evenodd" clip-rule="evenodd" d="M42 27V24H27V6H43.5H45V30H27V27H42ZM90 24H72V12H87V9H72V6H90V24ZM87 21V15H75V21H87ZM42 21V9H30V21H42ZM15 21V9H3V21H15ZM18 0V24H0V6H15V0H18ZM69 24H54V0H57V6H69V9H57V21H69V24ZM93 0H96V24H93V0ZM21 6H24V24H21V6ZM48 6H51V24H48V6ZM21 0H24V3H21V0ZM48 0H51V3H48V0Z" transform="translate(185.25)" fill="white"/>
</g>
<defs>
<clipPath id="clip0">
<rect width="281" height="30" fill="white"/>
</clipPath>
</defs>
</svg>
