<svg xmlns="http://www.w3.org/2000/svg">

  <symbol viewbox="0 0 24 24" id="icon-nav-toggle">
    <path d="M0,2 L24,2 L24,4 L0,4 L0,2 Z M0,11 L24,11 L24,13 L0,13 L0,11 Z M24,20 L0,20 L0,22 L24,22 L24,20 Z"></path>
  </symbol>

  <symbol viewbox="0 0 24 24" id="icon-nav-close">
    <polygon points="4.22182541 2.80761184 2.80761184 4.22182541 10.5857864 12 2.80761184 19.7781746 4.22182541 21.1923882 12 13.4142136 19.7781746 21.1923882 21.1923882 19.7781746 13.4142136 12 21.1923882 4.22182541 19.7781746 2.80761184 12 10.5857864"></polygon>
  </symbol>

  <symbol viewbox="0 0 24 24" id="icon-facebook">
    <path d="M10.44718,17.984 L12.92,17.984 L12.92,11.9993 L14.5696,11.9993 L14.7881,9.93711 L12.92,9.93711 L12.9225,8.9046 C12.9225,8.36709 12.9739,8.0785 13.7453,8.0785 L14.7764,8.0785 L14.7764,6.016 L13.1264,6.016 C11.1446,6.016 10.44718,7.01662 10.44718,8.6989 L10.44718,9.93711 L9.21189,9.93711 L9.21189,11.9996 L10.44718,11.9996 L10.44718,17.984 Z M12,23 C5.92509,23 1,18.0749 1,12 C1,5.9247 5.92509,1 12,1 C18.0749,1 23,5.9247 23,12 C23,18.0749 18.0749,23 12,23 Z"></path>
  </symbol>

  <symbol viewbox="0 0 24 24" id="icon-instagram">
    <path fill-rule="evenodd" d="M12,23 C18.0753,23 23,18.0751 23,12 C23,5.92486 18.0753,1 12,1 C5.9247,1 1,5.92486 1,12 C1,18.0751 5.9247,23 12,23 Z M14.9436,19.1567 C16.1844,19.1567 17.2234,18.7527 17.9736,18.0312 C18.7529,17.2809 19.1566,16.2132 19.1566,14.9723 L19.1566,9.02769 C19.1566,7.81565 18.7529,6.77676 18.0021,6.02645 C17.2519,5.24732 16.1844,4.84335 14.9722,4.84329 L9.0278,4.84329 C6.51705,4.84335 4.8434,6.51705 4.8434,9.02769 L4.8434,14.9435 C4.8434,16.1843 5.2471,17.2521 6.0556,18.0312 C6.8344,18.7816 7.87335,19.1567 9.0564,19.1567 L14.9436,19.1567 Z M15.0014,6.17077 C15.8671,6.17077 16.5886,6.43048 17.1078,6.9499 C17.5984,7.46938 17.8872,8.19081 17.8872,9.02769 L17.8872,14.9723 L17.8295,14.9723 C17.8295,15.8669 17.5693,16.5884 17.0501,17.0789 C16.5309,17.5695 15.8093,17.8292 14.9436,17.8292 L9.0564,17.8292 C8.1907,17.8292 7.4691,17.5695 6.9499,17.0789 C6.4307,16.5595 6.17055,15.8381 6.17055,14.9435 L6.17055,9.02769 C6.17055,8.16193 6.4307,7.4405 6.9499,6.92108 C7.4405,6.43048 8.1907,6.17077 9.0564,6.17077 L15.0014,6.17077 Z M12,8.27738 C9.97985,8.27738 8.3062,9.92226 8.3062,11.9711 C8.3062,14.02 9.95125,15.6649 12,15.6649 C14.0487,15.6649 15.6938,13.9912 15.6938,11.9711 C15.6938,9.95108 14.0201,8.27738 12,8.27738 Z M12,14.3374 C10.70145,14.3374 9.6339,13.2697 9.6339,11.9711 C9.6339,10.67257 10.70145,9.6048 12,9.6048 C13.2986,9.6048 14.3661,10.67257 14.3661,11.9711 C14.3661,13.2697 13.2986,14.3374 12,14.3374 Z M15.8379,9.02769 C16.3005,9.02769 16.675,8.65298 16.675,8.19081 C16.675,7.72859 16.3005,7.35393 15.8379,7.35393 C15.3759,7.35393 15.0014,7.72859 15.0014,8.19081 C15.0014,8.65298 15.3759,9.02769 15.8379,9.02769 Z"></path>
  </symbol>

  <symbol viewbox="0 0 24 24" id="icon-youtube">
    <path fill-rule="evenodd" d="M12,23 C18.0751,23 23,18.0751 23,12 C23,5.92486 18.0751,1 12,1 C5.92486,1 1,5.92486 1,12 C1,18.0751 5.92486,23 12,23 Z M16.2961,11.5769 L7.70378,11.5769 C6.33775,11.577 5.23076,12.5849 5.23076,13.9424 L5.23076,16.3108 C5.23076,17.6682 6.3378,18.7692 7.70378,18.7692 L16.2961,18.7692 C17.6618,18.7692 18.7692,17.6684 18.7692,16.3108 L18.7692,13.9611 C18.7692,12.6036 17.6618,11.577 16.2961,11.5769 Z M11.5106,17.4956 L10.8005,17.4956 L10.8005,17.1334 C10.66856,17.2674 10.53282,17.3695 10.39032,17.4387 C10.24853,17.5106 10.11114,17.5445 9.9776,17.5445 C9.81265,17.5445 9.69028,17.4956 9.60602,17.3965 C9.52374,17.2976 9.48127,17.1514 9.48127,16.9535 L9.48127,14.19 L10.19171,14.19 L10.19171,16.7259 C10.19171,16.8041 10.20717,16.8606 10.23571,16.895 C10.26651,16.9312 10.31519,16.9476 10.38185,16.9476 C10.43311,16.9476 10.49993,16.9248 10.57968,16.8784 C10.66042,16.8317 10.73335,16.7726 10.80017,16.7008 L10.80017,14.19 L11.5106,14.19 L11.5106,17.4956 Z M12.9629,17.4954 L12.2445,17.4954 L12.2445,12.9243 L12.9629,12.9243 L12.9629,14.4581 C13.0591,14.3582 13.1607,14.2811 13.2671,14.2289 C13.3758,14.1757 13.6842,14.1502 13.7946,14.1502 C14.0197,14.1502 14.1914,14.129 14.3097,14.27 C14.4287,14.411 14.4876,14.6175 14.4876,14.8881 L14.4876,16.7223 L14.4878,16.7223 C14.4878,16.9558 14.4323,17.1351 14.3208,17.2604 C14.21,17.3855 14.0483,17.538 13.838,17.538 C13.6981,17.538 13.3748,17.5146 13.2667,17.4661 C13.158,17.4183 13.0556,17.3444 12.9629,17.2423 L12.9629,17.4954 Z M15.7127,15.8678 L15.7127,16.4906 C15.7127,16.6645 15.7354,16.7852 15.782,16.8528 C15.8295,16.9204 15.9096,16.9532 16.0229,16.9532 C16.141,16.9532 16.2231,16.9246 16.2701,16.8676 C16.3163,16.81 16.3408,16.6851 16.3408,16.4905 L16.3408,16.34 L17.072,16.34 L17.072,16.5097 C17.072,16.8484 16.9836,17.1037 16.804,17.276 C16.6269,17.4462 16.361,17.5313 16.0066,17.5313 C15.6882,17.5313 15.4372,17.441 15.2547,17.259 C15.0728,17.0788 14.9801,16.8282 14.9801,16.5097 L14.9801,15.0248 C14.9801,14.7392 15.0809,14.5041 15.2825,14.3239 C15.4836,14.1437 15.7414,14.0538 16.0602,14.0538 C16.3857,14.0538 16.6357,14.1373 16.8104,14.3043 C16.9849,14.4718 17.0722,14.7117 17.0722,15.025 L17.0722,15.8678 L15.7127,15.8678 Z M9.38877,13.5033 L8.56025,13.5033 L8.56025,17.332 L7.75934,17.332 L7.75934,13.5033 L6.93104,13.5033 L6.93104,12.8517 L9.38877,12.8517 L9.38877,13.5033 Z M13.2603,14.6751 C13.2097,14.6751 13.159,14.6852 13.1095,14.707 C13.0601,14.7283 13.0114,14.763 12.963,14.8081 L12.963,16.8674 C13.0202,16.9206 13.0768,16.9615 13.1316,16.985 C13.1864,17.0079 13.2427,17.0206 13.3029,17.0206 C13.3903,17.0206 13.6532,16.9972 13.6942,16.9499 C13.7346,16.9031 13.7557,16.8282 13.7557,16.7225 L13.7557,15.015 C13.7557,14.9028 13.7314,14.8186 13.681,14.7608 C13.6293,14.7039 13.3559,14.6751 13.2603,14.6751 Z M16.0296,14.6318 C15.916,14.6318 15.8358,14.6616 15.7861,14.7233 C15.7362,14.7811 15.7127,14.8808 15.7127,15.0195 L15.7127,15.3536 L16.3408,15.3536 L16.3408,15.0195 C16.3408,14.8808 16.3155,14.7811 16.2659,14.7233 C16.2177,14.6616 16.1376,14.6318 16.0296,14.6318 Z M11.8832,10.79655 C12.2335,10.79655 12.5085,10.70354 12.7091,10.5183 C12.9081,10.3318 13.0079,10.07753 13.0079,9.75132 L13.0079,7.78265 C13.0079,7.4928 12.9058,7.25388 12.7033,7.0698 C12.4986,6.88621 12.2374,6.79381 11.9181,6.79381 C11.5678,6.79381 11.2882,6.8812 11.0809,7.05599 C10.87365,7.23078 10.77003,7.46498 10.77003,7.76121 L10.77003,9.73631 C10.77003,10.06032 10.87123,10.31672 11.0732,10.50884 C11.2756,10.70018 11.5456,10.79655 11.8832,10.79655 Z M14.3842,6.89001 L13.6143,6.89001 L13.6143,10.07445 C13.6143,10.30154 13.6597,10.47133 13.7493,10.58381 C13.84,10.69793 13.9733,10.75585 14.1526,10.75585 C14.2973,10.75585 14.4463,10.71421 14.5998,10.63391 C14.7545,10.55262 14.9026,10.4336 15.0434,10.27828 L15.0434,10.70008 L15.8151,10.70008 L15.8151,6.89001 L15.0434,6.89001 L15.0434,9.78234 C14.9721,9.86517 14.8924,9.9331 14.8063,9.98722 C14.7193,10.04073 14.6473,10.06719 14.5907,10.06719 C14.5185,10.06719 14.4655,10.04712 14.4342,10.00609 C14.4019,9.96594 14.3842,9.90093 14.3842,9.81139 L14.3842,6.89001 Z M8.66931,5.23076 L7.79481,5.23076 L8.82865,8.34971 L8.82865,10.70018 L9.69682,10.70018 L9.69682,8.25351 L10.70712,5.23076 L9.82491,5.23076 L9.28762,7.29568 L9.23306,7.29568 L8.66931,5.23076 Z M11.5634,7.73206 C11.5634,7.64906 11.5929,7.58234 11.651,7.53004 C11.7105,7.47883 11.7867,7.45375 11.8806,7.45375 C11.9828,7.45375 12.0653,7.47883 12.1281,7.53004 C12.1907,7.58234 12.2221,7.64906 12.2221,7.73206 L12.2221,9.80787 C12.2221,9.90973 12.1912,9.99041 12.1294,10.04893 C12.0678,10.10745 11.985,10.13616 11.8804,10.13616 C11.7786,10.13616 11.6999,10.10839 11.6453,10.04998 C11.5907,9.99272 11.5632,9.91259 11.5632,9.80787 L11.5632,7.73206 L11.5634,7.73206 Z"></path>
  </symbol>

  <symbol viewbox="0 0 68 68" id="icon-no-driving">
    <path d="M14.9566,55.8718 C20.0513,60.3114 26.7117,63 34,63 C50.0163,63 63,50.0163 63,34 C63,26.7117 60.3114,20.0513 55.8718,14.9566 L48.6051,22.2233 L52,32 L52,48 C52,49.1 51.1,50 50,50 L48,50 C46.9,50 46,49.1 46,48 L46,46 L24.8284,46 L14.9566,55.8718 Z M12.1282,53.0434 L16.2346,48.937 C16.085,48.6571 16,48.338 16,48 L16,32 L20.16,20.02 C20.58,18.84 21.68,18 23,18 L45,18 C45.6184,18 46.1928,18.1843 46.67,18.5016 L53.0434,12.1282 C47.9487,7.68865 41.2883,5 34,5 C17.9837,5 5,17.9837 5,34 C5,41.2883 7.68865,47.9487 12.1282,53.0434 Z M44.1716,21 L23,21 L20,30 L35.1716,30 L44.1716,21 Z M46.2071,24.6213 L40.8284,30 L48,30 L46.2071,24.6213 Z M34,67 C15.7746,67 1,52.2254 1,34 C1,15.7746 15.7746,1 34,1 C52.2254,1 67,15.7746 67,34 C67,52.2254 52.2254,67 34,67 Z M23,40 C24.66,40 26,38.66 26,37 C26,35.34 24.66,34 23,34 C21.34,34 20,35.34 20,37 C20,38.66 21.34,40 23,40 Z M45,40 C46.66,40 48,38.66 48,37 C48,35.34 46.66,34 45,34 C43.34,34 42,35.34 42,37 C42,38.66 43.34,40 45,40 Z"></path>
  </symbol>

  <symbol viewbox="0 0 68 68" id="icon-no-pregnant">
    <path d="M39.7419,31.0865 C41.115,32.2836 41.9855,34.052 42,36 L42,44 L36,44 L36,54 L30,54 L30,44 L26.8284,44 L14.9566,55.8718 C20.0513,60.3114 26.7117,63 34,63 C50.0163,63 63,50.0163 63,34 C63,26.7117 60.3114,20.0513 55.8718,14.9566 L39.7419,31.0865 Z M37.5235,27.6481 L53.0434,12.1282 C47.9487,7.68865 41.2883,5 34,5 C17.9837,5 5,17.9837 5,34 C5,41.2883 7.68865,47.9487 12.1282,53.0434 L26,39.1716 L26,30 C26,26.68 28.68,24 32,24 C34.4847,24 36.6109,25.5011 37.5235,27.6481 Z M34,67 C15.7746,67 1,52.2254 1,34 C1,15.7746 15.7746,1 34,1 C52.2254,1 67,15.7746 67,34 C67,52.2254 52.2254,67 34,67 Z M28,18 C28,15.78 29.78,14 32,14 C34.22,14 36,15.78 36,18 C36,20.22 34.22,22 32,22 C29.78,22 28,20.22 28,18 Z"></path>
  </symbol>

  <symbol viewbox="0 0 30 21" id="keys">
    <path d="M28.9189,16.8702445 C28.8481,16.7275707 28.7267,16.6357798 28.5547,16.6256032 C28.3523,16.60525 28.1196,16.7071167 28.0185,16.8397147 C27.9173,16.9823885 27.9173,17.2373071 27.9881,17.3901575 C27.9577,17.3799809 27.9173,17.3698043 27.8768,17.3494511 C27.7048,17.2168532 27.5935,16.9518587 27.5328,16.6459564 C27.5227,16.5644429 27.5126,16.4319457 27.5733,16.2993477 C27.6036,16.380962 27.6441,16.4522989 27.7149,16.493106 C27.7756,16.5338124 27.8464,16.5338124 27.9173,16.5134592 C28.1095,16.4421223 28.322,16.2076576 28.3726,15.7794347 C28.4029,15.5246169 28.2714,15.2798748 28.069,15.1780082 C28.0387,15.1677308 28.0083,15.1575542 27.978,15.1473776 C28.0589,14.9537201 28.1196,14.729432 28.1399,14.4643368 C28.2613,12.7109402 26.9156,12.2113804 26.3591,12.1195895 C25.9848,12.0584292 25.1146,12.1502201 24.3153,12.5885189 C24.3356,12.3846847 24.2546,12.2113804 24.0927,12.0890598 C23.86,11.9157554 23.4857,11.8851249 23.2327,12.0278995 C22.7875,12.2623641 22.7066,12.5987962 22.7774,12.8128069 C22.8482,13.0269184 23.1214,13.0269184 23.2934,12.9963886 C23.2024,13.1084319 23.0506,13.1900461 22.9191,13.2002227 C22.6256,13.2410299 21.9983,13.261383 21.8365,13.169693 C21.7859,13.1390624 21.7454,13.1084319 21.715,13.0880787 C21.9073,13.0779021 22.1703,12.9861113 22.2513,12.8128069 C22.312,12.6803097 22.2816,12.4866522 22.1805,12.3133478 C22.0489,12.1094129 21.8466,11.9870923 21.624,11.9870923 C21.3407,11.9870923 20.9562,12.1195895 20.7741,12.4050379 C20.7235,12.4763748 20.7033,12.5885189 20.7033,12.5885189 L16.2109,9.57096781 L23.4553,4.62660497 C23.4553,4.62660497 24.7302,6.54317972 24.7403,6.55337646 L24.7909,6.60435011 C24.8718,6.6655205 25.0337,6.75727104 25.2259,6.64512701 L25.833,6.27812483 C25.9645,6.17617755 26.0657,5.9620963 25.9139,5.73780824 C25.8229,5.59508405 25.4081,4.9834104 25.2866,4.79990932 C25.2664,4.76932916 25.2765,4.73874901 25.3069,4.71835552 L25.9139,4.33095986 C25.9342,4.31057644 25.9645,4.32077319 25.9848,4.3411566 C26.1062,4.50427427 26.5817,5.14652808 26.6829,5.26885878 C26.8549,5.49314684 27.0876,5.46255661 27.1787,5.42177971 L27.7655,5.02419738 C27.9577,4.89165986 27.9577,4.68777536 27.9274,4.58582807 L27.897,4.52465769 C27.8869,4.51446094 26.8245,3.0770324 26.5311,2.64885984 C26.5311,2.64885984 26.5716,2.61827968 26.6323,2.58768945 C26.693,2.54691255 26.9156,2.44496526 26.9763,2.40418836 C27.0876,2.34302805 27.3911,2.16971363 27.4316,1.97601983 C27.4721,1.77212828 27.381,1.56823774 27.2191,1.32356828 C27.0674,1.09928747 26.8954,1.02792568 26.774,1.00753658 C26.4805,0.956563785 26.1972,1.18084409 26.1972,1.18084409 L14.9968,8.74520284 L3.79636,1.18084409 C3.79636,1.18084409 3.52318,0.956563785 3.21964,1.00753658 C3.09823,1.02792568 2.91611,1.09928747 2.77446,1.32356828 C2.61257,1.56823774 2.52151,1.78232301 2.56199,1.97601983 C2.60246,2.16971363 2.90599,2.34302805 3.01729,2.40418836 C3.08811,2.44496526 3.30059,2.54691255 3.36129,2.58768945 C3.422,2.62847643 3.46247,2.64885984 3.46247,2.64885984 C3.16906,3.0770324 2.10668,4.51446094 2.09657,4.52465769 L2.06621,4.58582807 C2.03586,4.68777536 2.03586,4.9018566 2.2281,5.02419738 L2.81493,5.42177971 C2.91611,5.46255661 3.14882,5.49314684 3.31071,5.26885878 C3.41188,5.13633134 3.88742,4.50427427 4.00884,4.3411566 C4.02907,4.32077319 4.05942,4.31057644 4.07966,4.33095986 L4.68673,4.71835552 C4.71708,4.73874901 4.7272,4.76932916 4.70697,4.79990932 C4.58555,4.97322374 4.17072,5.59508405 4.07966,5.73780824 C3.93801,5.9620963 4.03919,6.17617755 4.1606,6.27812483 L4.76767,6.64512701 C4.94979,6.74707429 5.1218,6.6655205 5.20274,6.60435011 L5.25333,6.55337646 C5.26345,6.54317972 6.53829,4.62660497 6.53829,4.62660497 L13.7827,9.57096781 L9.29034,12.6089728 C9.29034,12.6089728 9.25999,12.4968288 9.21952,12.4254919 C9.0374,12.1400435 8.65292,12.0074455 8.36962,12.0074455 C8.14703,12.0074455 7.93456,12.1297661 7.81314,12.333701 C7.70185,12.5070054 7.67149,12.7006629 7.74232,12.8332609 C7.82326,13.0065652 8.08632,13.0982553 8.27856,13.1084319 C8.24821,13.1288858 8.20774,13.1594156 8.15715,13.1900461 C7.99526,13.281837 7.36796,13.261383 7.07454,13.2205759 C6.95312,13.2002227 6.80136,13.1288858 6.70018,13.0167418 C6.87218,13.0472716 7.14536,13.0472716 7.21619,12.8332609 C7.28701,12.6191494 7.20607,12.2928939 6.76089,12.0482526 C6.49782,11.9054781 6.13358,11.9361086 5.90087,12.1094129 C5.73898,12.2317336 5.66816,12.4152145 5.67828,12.6089728 C4.87897,12.1603967 4.00884,12.0787824 3.63448,12.1400435 C3.07799,12.221557 1.732323,12.7312934 1.853737,14.4847908 C1.873973,14.7497852 1.93468,14.9638967 2.01562,15.1677308 C1.985269,15.1780082 1.954915,15.1780082 1.924562,15.1983613 C1.722205,15.3003288 1.600791,15.54497 1.621027,15.7998886 C1.661498,16.2381874 1.88409,16.4624755 2.07633,16.5338124 C2.14715,16.5542663 2.21798,16.5542663 2.27869,16.5134592 C2.34951,16.4726521 2.38998,16.3911386 2.42034,16.3198017 C2.47092,16.4522989 2.47093,16.5847961 2.46081,16.6664103 C2.41022,16.9722119 2.2888,17.2373071 2.1168,17.3698043 C2.07633,17.4004348 2.03586,17.4004348 2.0055,17.4106114 C2.07633,17.2576603 2.07633,17.0028424 1.975151,16.8600679 C1.873973,16.7173941 1.631145,16.6256032 1.438906,16.6459564 C1.277021,16.6664103 1.145489,16.7479238 1.0746638,16.8906984 C0.9836033,17.0741793 0.9633682,17.3901575 1.0847822,17.6654293 C1.185961,17.8897173 1.368081,18.0426685 1.610909,18.1140054 C1.681734,18.1343586 1.762677,18.1446359 1.84362,18.1446359 C1.823384,18.2057963 1.803148,18.2669566 1.793031,18.3281169 C1.762677,18.5524049 1.823383,18.7664157 1.975151,18.93972 C2.18763,19.184462 2.52151,19.296606 2.73399,19.296606 C2.90599,19.296606 3.04764,19.2149918 3.12858,19.0621414 C3.21964,18.888837 3.21964,18.6542716 3.12858,18.5115978 C3.03752,18.3791006 2.7947,18.2669566 2.62269,18.2669566 C2.64293,18.2465026 2.66316,18.2261494 2.69352,18.2057963 C2.84528,18.1140054 3.23988,18.124182 3.52318,18.1955189 C3.61424,18.2159728 3.73565,18.2669566 3.82671,18.3586467 C3.74577,18.3586467 3.65471,18.3688232 3.594,18.4096304 C3.5333,18.4504375 3.50294,18.5115978 3.50294,18.5829347 C3.49283,18.776693 3.62436,19.0621414 4.02907,19.2761521 C4.13025,19.3373124 4.25166,19.3577663 4.36296,19.3577663 C4.50461,19.3577663 4.64626,19.3169592 4.73732,19.2251684 C4.73732,19.2251684 4.73732,19.2149918 4.74744,19.2149918 C4.91944,19.3985735 5.13191,19.5718778 5.42533,19.7145516 C5.8604,19.9184865 6.24488,20 6.57877,20 C7.51972,20 8.10656,19.3679429 8.3595,19.0315108 C8.5821,18.7257093 8.81481,17.9203479 8.69339,17.0333722 C8.78445,17.0843559 8.87551,17.1047091 8.96657,17.1047091 C9.07787,17.1047091 9.18917,17.0741793 9.29034,17.0028424 C9.52305,16.8498913 9.67482,16.5440897 9.64447,16.2789945 C9.58376,15.7896113 9.30046,15.5959538 9.07787,15.5756006 C8.88563,15.5653232 8.7541,15.7590815 8.70351,15.9833696 C8.62257,15.8507716 8.62257,15.6265843 8.6428,15.5041629 C8.71363,15.1780082 8.91598,14.729432 9.06775,14.6274646 C9.12846,14.5866575 9.16893,14.5561277 9.2094,14.5356738 C9.13858,14.7192554 9.13858,14.9944265 9.27011,15.1270244 C9.37129,15.2391685 9.59388,15.2798748 9.80635,15.2391685 C10.03906,15.1983613 10.24142,15.025057 10.32236,14.8313995 C10.39319,14.6682717 10.40331,14.4439837 10.38307,14.2910325 C10.33248,14.0157607 10.03906,13.80175 10.03906,13.80175 L15.017,10.4069194 L19.995,13.80175 C19.995,13.80175 19.6915,14.0157607 19.651,14.2910325 C19.6308,14.4439837 19.6409,14.6682717 19.7117,14.8313995 C19.7927,15.025057 20.0051,15.1983613 20.2277,15.2391685 C20.4402,15.2798748 20.6527,15.2289919 20.764,15.1270244 C20.8955,14.9944265 20.8854,14.7192554 20.8247,14.5356738 C20.8651,14.5561277 20.9157,14.5866575 20.9663,14.6274646 C21.1181,14.729432 21.3204,15.1677308 21.3913,15.5041629 C21.4216,15.6265843 21.4115,15.8507716 21.3306,15.9833696 C21.28,15.7692581 21.1484,15.5653232 20.9562,15.5756006 C20.7336,15.5959538 20.4503,15.7896113 20.3896,16.2789945 C20.3593,16.5542663 20.5009,16.8600679 20.7437,17.0028424 C20.8449,17.0640028 20.9562,17.1047091 21.0675,17.1047091 C21.1586,17.1047091 21.2597,17.0741793 21.3407,17.0333722 C21.2193,17.9100705 21.452,18.7257093 21.6746,19.0315108 C21.9275,19.3679429 22.5042,20 23.4553,20 C23.7892,20 24.1737,19.9184865 24.6087,19.7145516 C24.9022,19.5718778 25.1146,19.3985735 25.2866,19.2149918 C25.2866,19.2149918 25.2866,19.2251684 25.2968,19.2251684 C25.3979,19.3169592 25.5295,19.3577663 25.6711,19.3577663 C25.7824,19.3577663 25.9038,19.3271358 26.005,19.2761521 C26.4097,19.0621414 26.5412,18.776693 26.5311,18.5829347 C26.5311,18.5115978 26.4907,18.4504375 26.4401,18.4096304 C26.3794,18.3688232 26.2883,18.3484701 26.2074,18.3586467 C26.3085,18.2771332 26.4198,18.2261494 26.5109,18.1955189 C26.7942,18.124182 27.1888,18.1140054 27.3406,18.2057963 C27.3709,18.2261494 27.3911,18.2465026 27.4114,18.2669566 C27.2293,18.2669566 26.9864,18.3791006 26.9055,18.5115978 C26.8144,18.6542716 26.8144,18.888837 26.9055,19.0621414 C26.9864,19.2149918 27.1281,19.296606 27.3001,19.296606 C27.5227,19.296606 27.8566,19.184462 28.0589,18.93972 C28.2107,18.7664157 28.2714,18.5524049 28.241,18.3281169 C28.2309,18.2669566 28.2107,18.2057963 28.1905,18.1446359 C28.2714,18.1446359 28.3422,18.1343586 28.4232,18.1140054 C28.666,18.0528451 28.8481,17.8897173 28.9493,17.6654293 C29.0302,17.3698043 29.01,17.0537254 28.9189,16.8702445 Z M23.2833,12.5375351 C23.2631,12.5070054 23.2631,12.445845 23.2631,12.445845 C23.253,12.2725407 23.4351,12.221557 23.516,12.2012038 C23.597,12.1909264 23.9207,12.1705733 23.9713,12.4661982 C24.0219,12.7822771 23.86,12.9454049 23.7487,13.0677255 C23.6374,13.1798695 23.4452,13.2715596 23.4452,13.2715596 C23.4452,13.2715596 23.6678,13.1390624 23.769,12.9555815 C23.9005,12.7211168 23.8398,12.5579891 23.8297,12.5171819 C23.8094,12.445845 23.688,12.4050379 23.6475,12.4560216 C23.6071,12.5171819 23.6071,12.6089728 23.4755,12.629326 C23.3339,12.6395026 23.3035,12.5681657 23.2833,12.5375351 Z M27.1989,4.22902264 L26.6323,4.61640823 L25.9443,3.67850931 C25.9241,3.65812589 25.8937,3.64792915 25.8634,3.66831256 L24.7403,4.41252373 C24.7099,4.43290714 24.7099,4.4634873 24.72,4.49407753 L25.3069,5.43197645 L24.7403,5.81937212 L23.8297,4.4634873 C23.7993,4.4227104 23.8094,4.36155009 23.86,4.33095986 L26.1163,2.86295116 C26.1568,2.83236093 26.2074,2.84255767 26.2377,2.88333457 L27.1989,4.22902264 Z M6.15382,4.47368404 L5.24321,5.82956886 L4.67661,5.4421732 L5.26345,4.50427427 C5.28368,4.47368404 5.27356,4.44310389 5.24321,4.4227104 L4.12013,3.67850931 C4.08978,3.65812589 4.05942,3.66831256 4.03919,3.68870605 L3.35118,4.62660497 L2.78458,4.23920931 L3.73565,2.90372806 C3.76601,2.86295116 3.8166,2.85275441 3.85707,2.88333457 L6.11334,4.35135334 C6.16393,4.37174683 6.17405,4.43290714 6.15382,4.47368404 Z M3.28035,1.69057146 C3.18929,1.62940409 3.37141,1.32356828 3.48271,1.39493037 C3.54342,1.43570828 9.80635,5.6868346 14.6528,8.97967757 L14.3391,9.19376889 C9.4927,5.91112266 3.33094,1.73135037 3.28035,1.69057146 Z M6.01217,12.4661982 C6.06276,12.1603967 6.38653,12.1807499 6.46747,12.2012038 C6.54841,12.2113804 6.73053,12.2725407 6.72041,12.445845 C6.72041,12.445845 6.72042,12.5070054 6.70018,12.5375351 C6.67994,12.5681657 6.64959,12.6395026 6.51806,12.629326 C6.38653,12.6191494 6.38653,12.5171819 6.34606,12.4560216 C6.30558,12.3948613 6.17405,12.4356684 6.16393,12.5171819 C6.15382,12.5579891 6.09311,12.7211168 6.22464,12.9555815 C6.32582,13.1390624 6.54841,13.2715596 6.54841,13.2715596 C6.54841,13.2715596 6.35617,13.1798695 6.24488,13.0677255 C6.13358,12.9555815 5.96158,12.7822771 6.01217,12.4661982 Z M2.20786,14.3420162 C2.20786,14.3420162 2.07633,13.444864 2.7947,12.8229835 C3.34106,12.3540542 4.25166,12.4254919 4.25166,12.4254919 C4.25166,12.4254919 3.66483,12.6089728 3.14882,12.9861113 C2.48104,13.4653179 2.20786,14.3420162 2.20786,14.3420162 Z M8.00538,15.2289919 C7.97503,15.4124728 7.96491,15.5959538 7.98514,15.7692581 C7.71196,15.5959538 7.41855,15.5347934 7.20607,15.5347934 L7.17572,15.5347934 C7.03407,15.5347934 6.91265,15.5959538 6.82159,15.6877446 C6.64959,15.8712255 6.61924,16.0955136 6.63947,16.3198017 C6.65971,16.5746195 6.94301,16.900875 7.24654,16.9518587 C7.3376,16.9722119 7.5602,16.9722119 7.69173,16.6765869 C7.74232,16.5644429 7.76255,16.4624755 7.76255,16.380962 C8.05597,16.7275707 8.15715,17.3901575 7.98514,17.9203479 C7.82326,18.4300843 7.08466,18.8072228 6.44723,19.0009811 C6.00205,19.1334783 5.62769,18.93972 5.55686,18.8990136 C5.42533,18.8276767 4.76767,18.419807 4.76767,17.7877499 C4.76767,17.6348995 4.77779,17.5431087 4.79803,17.4717718 C4.82838,17.5839158 4.88909,17.6654293 4.97003,17.7265896 C5.11168,17.8183804 5.26345,17.7673967 5.28368,17.7673967 C5.37474,17.7572201 5.51639,17.6246222 5.59733,17.4615952 C5.69851,17.2474837 5.6884,17.0028424 5.55686,16.768277 C5.45569,16.5847961 5.32415,16.4828287 5.16227,16.4522989 C4.90932,16.4114918 4.64626,16.5746195 4.48437,16.768277 C4.35284,16.9212282 4.18084,17.3799809 4.20107,17.8998939 C3.96836,17.7367662 3.7053,17.604269 3.40177,17.5329321 C3.21964,17.4819483 3.02741,17.4819483 2.84528,17.4921249 C2.92623,17.3494511 2.99705,17.1863234 3.01729,17.013019 C3.06788,16.7275707 3.04764,16.4421223 2.99705,16.1872037 C3.37141,16.380962 3.77613,16.4726521 4.04931,16.4726521 C4.15049,16.4726521 4.28202,16.4421223 4.34272,16.4114918 C4.57543,16.3198017 4.80814,16.197481 4.86885,15.9425624 C4.90932,15.7896113 4.85873,15.6265843 4.71708,15.4634565 C4.53496,15.2595217 4.30225,15.1473776 4.05942,15.1677308 C3.88742,15.1780082 3.71542,15.2595217 3.65471,15.3513125 C3.65471,15.3513125 3.55353,15.4634565 3.58389,15.6163069 C3.60412,15.7080978 3.65471,15.7896113 3.73565,15.8610489 C3.66483,15.8507716 3.56365,15.8202418 3.43212,15.7692581 C2.81493,15.5246169 2.67328,14.7905924 2.65305,14.6478178 C2.64293,14.5663043 2.59234,14.1687119 2.88576,13.8221032 C3.3107,13.3327199 3.96836,12.8332609 4.52485,12.8739672 C5.09144,12.9249509 5.6884,13.261383 5.92111,13.6487989 C5.84016,13.6181683 5.73899,13.5978151 5.61757,13.5978151 C5.28368,13.5774619 5.20274,13.80175 5.1825,13.8934401 C5.1218,14.1788885 5.37474,14.5764809 5.55686,14.6784483 C5.9717,14.8823832 6.36629,14.8109455 6.50794,14.505144 C6.58888,14.321663 6.65971,14.0260381 6.599,13.6997826 C6.76089,13.7812961 6.94301,13.8424564 7.13525,13.8832635 C7.28701,13.913894 7.43878,13.9342472 7.60067,13.9342472 C8.03573,13.9342472 8.4708,13.7711195 8.5821,13.7201358 C8.70351,13.669152 9.05763,13.444864 9.23975,13.3633505 C9.3207,13.3225434 9.38141,13.3735271 9.41176,13.4143342 C9.43199,13.4551413 9.45223,13.5060243 9.39152,13.5468314 C9.21952,13.669152 9.07787,13.7812961 8.95646,13.8629103 L8.9261,13.8934401 C8.46068,14.1788885 8.08632,14.6886249 8.00538,15.2289919 Z M4.28202,15.7489049 C4.21119,15.7386276 4.13025,15.7794347 4.05942,15.6672907 C3.9886,15.5551466 4.03919,15.5041629 4.05942,15.4736331 C4.07966,15.4430026 4.13025,15.4124728 4.13025,15.4124728 C4.26178,15.3308586 4.47426,15.4838097 4.53496,15.5551466 C4.58555,15.6163069 4.69685,15.8712255 4.47426,16.0547065 C4.24155,16.2280108 3.97848,16.2076576 3.82671,16.197481 C3.61424,16.1770271 3.35118,16.0648831 3.35118,16.0648831 C3.35118,16.0648831 3.73565,16.1566739 3.95825,16.1260434 C4.20107,16.0955136 4.31237,15.9935462 4.34272,15.9629156 C4.3832,15.8915787 4.36296,15.7590815 4.28202,15.7489049 Z M9.93789,14.4133531 C9.90753,14.4847908 9.776,14.6478178 9.62423,14.617288 C9.62423,14.617288 9.56353,14.6071114 9.54329,14.5866575 C9.51294,14.5663043 9.46235,14.5254972 9.4927,14.3929999 C9.52305,14.2706793 9.61411,14.3012091 9.67482,14.2706793 C9.73553,14.2298722 9.72541,14.1177282 9.66471,14.0871984 C9.62423,14.0667444 9.4927,13.9852309 9.25999,14.0871984 C9.07787,14.1585353 8.90587,14.3521928 8.90587,14.3521928 C8.90587,14.3521928 9.01716,14.1585353 9.13858,14.0667444 C9.25999,13.9750544 9.46235,13.852633 9.72541,13.9444238 C10.00871,14.0260381 9.96824,14.3420162 9.93789,14.4133531 Z M9.948,13.0575489 C9.78612,13.1187092 9.604,12.9045978 9.76588,12.7516466 C9.76588,12.7516466 26.3996,1.46629246 26.5008,1.39493037 C26.602,1.32356828 26.7942,1.62940409 26.7031,1.69057146 C26.6222,1.75173882 9.948,13.0575489 9.948,13.0575489 Z M15.5533,10.0195238 L15.8669,9.80544254 C18.3458,11.4875325 20.2176,12.7516466 20.2176,12.7516466 C20.3896,12.9045978 20.1974,13.1187092 20.0355,13.0575489 C20.0355,13.0575489 18.103,11.7424511 15.5533,10.0195238 Z M20.7336,14.076921 C20.5009,13.9750544 20.3694,14.0565679 20.3289,14.076921 C20.2682,14.1177282 20.2581,14.2298722 20.3188,14.2605027 C20.3795,14.3012091 20.4706,14.2706793 20.5009,14.3828234 C20.5313,14.5153206 20.4807,14.5561277 20.4503,14.5764809 C20.42,14.5969348 20.3694,14.6071114 20.3694,14.6071114 C20.2176,14.6376412 20.0861,14.4745134 20.0557,14.4031765 C20.0254,14.3318396 19.9849,14.0157607 20.2682,13.9240706 C20.5313,13.8322798 20.7336,13.9546004 20.855,14.0463913 C20.9764,14.1380813 21.0877,14.3318396 21.0877,14.3318396 C21.0877,14.3318396 20.9056,14.1483587 20.7336,14.076921 Z M27.3406,14.6478178 C27.3203,14.7905924 27.1787,15.5246169 26.5615,15.7692581 C26.43,15.8202418 26.3389,15.8507716 26.258,15.8610489 C26.349,15.7896113 26.3996,15.7080978 26.4097,15.6163069 C26.4401,15.4634565 26.3389,15.3513125 26.3389,15.3513125 C26.2782,15.2595217 26.1163,15.1780082 25.9342,15.1677308 C25.6914,15.1473776 25.4586,15.2493451 25.2765,15.4634565 C25.1349,15.6265843 25.0843,15.7896113 25.1248,15.9425624 C25.1855,16.197481 25.4182,16.3198017 25.6509,16.4114918 C25.7116,16.4319457 25.833,16.4726521 25.9443,16.4726521 C26.2175,16.4726521 26.6222,16.380962 26.9965,16.1872037 C26.9358,16.4522989 26.9257,16.7275707 26.9763,17.013019 C27.0067,17.1863234 27.0674,17.3494511 27.1483,17.4921249 C26.9662,17.4717718 26.774,17.4819483 26.5918,17.5329321 C26.2984,17.6144456 26.0252,17.7367662 25.7925,17.8998939 C25.8128,17.3799809 25.6408,16.9212282 25.5092,16.768277 C25.3473,16.5746195 25.0843,16.4013152 24.8313,16.4522989 C24.6695,16.4726521 24.5379,16.5847961 24.4367,16.768277 C24.3052,17.0028424 24.2951,17.2474837 24.3963,17.4615952 C24.4772,17.6246222 24.6189,17.7572201 24.7099,17.7673967 C24.7302,17.7775733 24.8718,17.8183804 25.0135,17.7265896 C25.0944,17.6756059 25.1551,17.5940924 25.1855,17.4717718 C25.2057,17.5431087 25.2158,17.6348995 25.2158,17.7877499 C25.2158,18.419807 24.5582,18.8276767 24.4266,18.8990136 C24.3558,18.93972 23.9814,19.1334783 23.5363,19.0009811 C22.8988,18.8173994 22.1602,18.4300843 21.9983,17.9203479 C21.8263,17.3901575 21.9275,16.7275707 22.2209,16.380962 C22.2209,16.4624755 22.2412,16.5644429 22.2918,16.6765869 C22.4132,16.9823885 22.6459,16.9722119 22.7369,16.9518587 C23.0304,16.900875 23.3137,16.5746195 23.344,16.3198017 C23.3642,16.0955136 23.3339,15.8712255 23.1619,15.6877446 C23.0708,15.5857772 22.9494,15.5347934 22.8078,15.5347934 L22.7774,15.5347934 C22.5751,15.5347934 22.2715,15.5959538 21.9983,15.7692581 C22.0085,15.5959538 21.9983,15.4124728 21.968,15.2289919 C21.8769,14.6784483 21.5127,14.1687119 21.0675,13.8832635 L21.0371,13.852633 C20.9157,13.7711195 20.7741,13.669152 20.6021,13.5366548 C20.5414,13.4958477 20.5616,13.444864 20.5818,13.4041576 C20.6021,13.3633505 20.6729,13.3123668 20.7539,13.3531739 C20.9259,13.444864 21.2901,13.669152 21.4115,13.7099592 C21.5329,13.7609429 21.968,13.9240706 22.3929,13.9240706 C22.5447,13.9240706 22.7066,13.9036167 22.8584,13.8730869 C23.0506,13.8322798 23.2327,13.7609429 23.3946,13.689606 C23.3339,14.0157607 23.3946,14.3114864 23.4857,14.4949674 C23.6273,14.8007689 24.032,14.8721058 24.4367,14.6682717 C24.629,14.5764809 24.8718,14.1687119 24.8111,13.8832635 C24.7909,13.7914727 24.7099,13.5774619 24.376,13.5876385 C24.2546,13.5876385 24.1534,13.6079917 24.0725,13.6386223 C24.3052,13.2512064 24.892,12.9147744 25.4688,12.8637906 C26.0252,12.8229835 26.6829,13.3225434 27.1078,13.8119266 C27.3911,14.1585353 27.3507,14.5663043 27.3406,14.6478178 Z M25.6509,15.9425624 C25.6812,15.973193 25.7925,16.0648831 26.0354,16.1056902 C26.2579,16.13622 26.6424,16.0445299 26.6424,16.0445299 C26.6424,16.0445299 26.3794,16.1668505 26.1669,16.1770271 C26.0151,16.1872037 25.7521,16.2076576 25.5193,16.0343533 C25.2866,15.8610489 25.4081,15.6061303 25.4586,15.5347934 C25.5193,15.4634565 25.7318,15.3105054 25.8634,15.3920189 C25.8634,15.3920189 25.9139,15.4226494 25.9342,15.4531792 C25.9544,15.4838097 26.005,15.5347934 25.9342,15.6469375 C25.8634,15.7590815 25.7723,15.7182744 25.7116,15.728451 C25.6205,15.7590815 25.6003,15.8915787 25.6509,15.9425624 Z M26.8448,12.9861113 C26.3288,12.6089728 25.7419,12.4254919 25.7419,12.4254919 C25.7419,12.4254919 26.6525,12.3438776 27.1989,12.8229835 C27.9072,13.4346874 27.7857,14.3420162 27.7857,14.3420162 C27.7857,14.3420162 27.5024,13.4653179 26.8448,12.9861113 Z"></path>
  </symbol>

  <symbol viewbox="0 0 24 24" id="icon-pin">
    <path d="M16.2435,4.76715 C13.90143,2.41095 10.09856,2.41095 7.75655,4.76715 C5.414483,7.12329 5.414483,10.9491 7.75655,13.3052 C10.09856,15.6614 11.3353,20.9999 12.07261,20.9999 C12.80991,20.9999 13.90143,15.6614 16.2435,13.3052 C18.5855,10.9491 18.5855,7.12329 16.2435,4.76715 Z M12.07261,5.88797 C13.73072,5.88797 15.07688,7.24225 15.07688,8.91037 C15.07688,10.57849 13.73072,11.93276 12.07261,11.93276 C10.41449,11.93276 9.06834,10.57849 9.06834,8.91037 C9.06834,7.24225 10.41449,5.88797 12.07261,5.88797 Z" fill-rule="nonzero"></path>
  </symbol>

  <symbol viewbox="0 0 32 32" id="handle-rotate">
    <g stroke-width="2">
      <circle cx="16" cy="16" r="7"></circle>
      <path d="M18,14 L14,18"></path>
      <circle cx="16" cy="4" r="1"></circle>
      <circle cx="16" cy="28" r="1"></circle>
      <circle cx="4" cy="16" r="1"></circle>
      <circle cx="28" cy="16" r="1"></circle>
    </g>
  </symbol>

  <symbol viewbox="0 0 32 32" id="handle-vertical">
    <g stroke-width="2">
      <polygon points="16 8.93509447 23.0710678 16.0061623 16 23.0772301 8.92893219 16.0061623"></polygon>
      <polyline points="11.4644661 7.65776216 16 3.12222826 20.5355339 7.65776216"></polyline>
      <polyline points="20.5355339 24.3687493 16 28.9042832 11.4644661 24.3687493 11.4644661 24.3687493"></polyline>
      <circle cx="16" cy="16" r="1"></circle>
    </g>
  </symbol>

  <symbol viewbox="0 0 32 32" id="handle-horizontal">
    <g stroke-width="2">
      <polygon points="8.93509447 16 16.0061623 8.92893219 23.0772301 16 16.0061623 23.0710678"></polygon>
      <polyline points="7.65776216 20.5355339 3.12222826 16 7.65776216 11.4644661"></polyline>
      <polyline points="24.3687493 11.4644661 28.9042832 16 24.3687493 20.5355339 24.3687493 20.5355339"></polyline>
      <path d="M17.0061623,16 C17.0061623,15.4477153 16.558447,15 16.0061623,15 C15.4538775,15 15.0061623,15.4477153 15.0061623,16 C15.0061623,16.5522847 15.4538775,17 16.0061623,17 C16.558447,17 17.0061623,16.5522847 17.0061623,16 Z"></path>
    </g>
  </symbol>

  <symbol viewbox="0 0 18 18" id="scroll-pointer">
    <g stroke-width="2">
      <polyline points="17 5 9 13 1 5"></polyline>
    </g>
  </symbol>

</svg>

