<?xml version="1.0" encoding="UTF-8"?>
<svg width="256px" height="256px" viewBox="0 0 256 256" version="1.1" xmlns="http://www.w3.org/2000/svg" xmlns:xlink="http://www.w3.org/1999/xlink">
  <g id="Page-1" stroke="none" stroke-width="1" fill="none" fill-rule="evenodd">

    <g id="data" transform="translate(72.000000, 115.000000)" stroke-width="2">
      <g id="nodes" fill-opacity="0.8" >
        <polygon id="node-1" stroke="#FFFFFF" fill="#202027" points="140 76 140 56 120 56 120 76"></polygon>
        <polygon id="node-2" stroke="#FFFFFF" fill="#202027" points="100 76 100 56 80 56 80 76"></polygon>
        <polygon id="node-3" stroke="#FFFFFF" fill="#202027" points="100 20 100 0 80 0 80 20"></polygon>
        <polygon id="node-4" stroke="#FFFFFF" fill="#202027" points="60 76 60 56 40 56 40 76"></polygon>
        <polygon id="node-5" stroke="#FFFFFF" fill="#202027" points="20 76 20 56 0 56 0 76"></polygon>
      </g>
      <path stroke-dasharray="2 3" d="M50,76 C50,87.038 41.038,96 30,96 C18.962,96 10,87.038 10,76" stroke="#FFFFFF" opacity="0.5"></path>
      <path stroke-dasharray="2 3" d="M90,76 C90,87.038 81.038,96 70,96 C58.962,96 50,87.038 50,76" stroke="#FFFFFF" opacity="0.5"></path>
      <path stroke-dasharray="2 3" d="M130,76 C130,87.038 121.038,96 110,96 C98.962,96 90,87.038 90,76" stroke="#FFFFFF" opacity="0.5"></path>
      <path stroke-dasharray="2 3" d="M50,20 C50,37.969 10,38.268 10,55.867" stroke="#FFFFFF" opacity="0.5"></path>
      <path stroke-dasharray="2 3" d="M90,20 C90,37.969 50,38.268 50,55.867" stroke="#FFFFFF" opacity="0.5"></path>
      <path stroke-dasharray="2 3" d="M90,20 C90,37.969 130,38.268 130,55.867" stroke="#FFFFFF" opacity="0.5"></path>
      <path stroke-dasharray="2 3" d="M50,20 C50,37.969 90,38.268 90,55.867" stroke="#FFFFFF" opacity="0.5"></path>
    </g>

    <g id="window" transform="translate(32.000000, 75.000000)" stroke="#FFFFFF" stroke-width="2" opacity="0.5">
      <path d="M100,5 C100,2.24 97.76,0 95,0 L5,0 C2.24,0 0,2.24 0,5 L0,55 C0,57.76 2.24,60 5,60 L95,60 C97.76,60 100,57.76 100,55 L100,5 Z" fill="#202027"></path>
      <path d="M0,12 L100,12"></path>
    </g>

    <g id="code" transform="translate(50.000000, 99.000000)">
      <polyline stroke="#FFFFFF" stroke-width="2" points="12 0 0 12 12 24"></polyline>
      <polyline stroke="#FFFFFF" stroke-width="2" points="54 0 66 12 54 24"></polyline>
      <polygon id="cursor" fill-opacity="0.8" fill="#1772B7" points="46 24 46 0 34 0 34 24"></polygon>
      <path d="M34,24 L46,24" stroke="#FFFFFF" stroke-width="2"></path>
      <path d="M32,0 L20,24" stroke="#FFFFFF" stroke-width="2"></path>
    </g>

    <circle id="oval" stroke="#FFFFFF" stroke-width="2" fill="#202027" cx="192" cy="75" r="30"></circle>
    <circle id="target" fill-opacity="0.8" fill="#1772B7" cx="192" cy="75" r="10"></circle>
  </g>

  <style>
    @keyframes node1 {
      0% { fill: #202027; }
      50% { fill: #202027; }
      60% { fill: #1772B7; }
      70% { fill: #202027; }
      100% { fill: #202027; }
    }
    @keyframes node2 {
      0% { fill: #202027; }
      80% { fill: #202027; }
      90% { fill: #1772B7; }
      100% { fill: #202027; }
    }
    @keyframes node3 {
      0% { fill: #202027; }
      30% { fill: #202027; }
      40% { fill: #1772B7; }
      50% { fill: #202027; }
      100% { fill: #202027; }
    }
    @keyframes node4 {
      0% { fill: #202027; }
      10% { fill: #202027; }
      20% { fill: #1772B7; }
      30% { fill: #202027; }
      100% { fill: #202027; }
    }
    @keyframes node5 {
      0% { fill: #202027; }
      50% { fill: #202027; }
      60% { fill: #1772B7; }
      70% { fill: #202027; }
      100% { fill: #202027; }
    }
    @keyframes target {
      0% { opacity: 0; }
      10% { opacity: 1; }
      20% { opacity: 0; }
      100% { opacity: 0; }
    }
    @keyframes cursor {
      0% { opacity: 0; }
      50% { opacity: 1; }
      100% { opacity: 0; }
    }

    #node-1 { animation: node1 3s linear infinite; }
    #node-2 { animation: node2 3s linear infinite; }
    #node-3 { animation: node3 3s linear infinite; }
    #node-4 { animation: node4 3s linear infinite; }
    #node-5 { animation: node5 3s linear infinite; }
    #target { animation: target 3s linear infinite; }
    #cursor { animation: cursor 1s linear infinite; }


  </style>
</svg>
